<svg width="24" height="24" viewBox="0 0 24 24" fill="none" xmlns="http://www.w3.org/2000/svg">
<circle cx="12" cy="12" r="12" fill="#101750"/>
<path d="M15.0553 5.88886C15.865 5.89128 16.6408 6.214 17.2134 6.78655C17.7859 7.3591 18.1087 8.13495 18.1111 8.94464V15.0556C18.1087 15.8653 17.7859 16.6411 17.2134 17.2137C16.6408 17.7862 15.865 18.1089 15.0553 18.1113H8.9444C8.1347 18.1089 7.35885 17.7862 6.78631 17.2137C6.21376 16.6411 5.89104 15.8653 5.88862 15.0556V8.94464C5.89104 8.13495 6.21376 7.3591 6.78631 6.78655C7.35885 6.214 8.1347 5.89128 8.9444 5.88886H15.0553ZM15.0553 4.66675H8.9444C6.59151 4.66675 4.6665 6.59175 4.6665 8.94464V15.0556C4.6665 17.4084 6.59151 19.3334 8.9444 19.3334H15.0553C17.4082 19.3334 19.3332 17.4084 19.3332 15.0556V8.94464C19.3332 6.59175 17.4082 4.66675 15.0553 4.66675Z" fill="white"/>
<path d="M15.9717 8.94489C15.7903 8.94489 15.6131 8.89112 15.4624 8.7904C15.3117 8.68967 15.1942 8.54651 15.1248 8.37901C15.0554 8.21151 15.0373 8.0272 15.0726 7.84938C15.108 7.67156 15.1953 7.50823 15.3235 7.38003C15.4517 7.25184 15.615 7.16453 15.7928 7.12916C15.9707 7.09379 16.155 7.11194 16.3225 7.18133C16.4899 7.2507 16.6331 7.36819 16.7339 7.51894C16.8346 7.66968 16.8883 7.84691 16.8883 8.02822C16.8886 8.14866 16.8651 8.26798 16.8191 8.37931C16.7731 8.49064 16.7056 8.5918 16.6205 8.67697C16.5353 8.76214 16.4341 8.82966 16.3228 8.87563C16.2114 8.92161 16.0921 8.94514 15.9717 8.94489ZM11.9995 9.55578C12.4831 9.55578 12.9557 9.69915 13.3577 9.96776C13.7597 10.2364 14.073 10.6182 14.258 11.0648C14.4431 11.5115 14.4914 12.0031 14.3971 12.4772C14.3028 12.9515 14.07 13.387 13.7281 13.7289C13.3862 14.0708 12.9507 14.3036 12.4764 14.3979C12.0023 14.4923 11.5107 14.4438 11.0641 14.2589C10.6174 14.0738 10.2356 13.7605 9.96697 13.3585C9.69836 12.9564 9.55499 12.4838 9.55499 12.0003C9.55568 11.3522 9.81346 10.7308 10.2717 10.2725C10.73 9.81424 11.3514 9.55647 11.9995 9.55578ZM11.9995 8.33366C11.2743 8.33366 10.5654 8.54871 9.96245 8.95161C9.35947 9.35451 8.88951 9.92716 8.61199 10.5972C8.33446 11.2672 8.26186 12.0044 8.40333 12.7157C8.54481 13.427 8.89403 14.0803 9.40682 14.593C9.91961 15.1058 10.5729 15.4551 11.2842 15.5966C11.9955 15.738 12.7328 15.6654 13.4027 15.3879C14.0727 15.1104 14.6454 14.6404 15.0483 14.0375C15.4512 13.4345 15.6662 12.7256 15.6662 12.0003C15.6662 11.0279 15.2799 10.0952 14.5923 9.4076C13.9046 8.71997 12.972 8.33366 11.9995 8.33366Z" fill="white"/>
</svg>
