<svg width="24" height="24" viewBox="0 0 24 24" fill="none" xmlns="http://www.w3.org/2000/svg">
<circle cx="12" cy="12" r="12" fill="#101750"/>
<path d="M19.3332 7.42188C18.783 7.66636 18.2009 7.82744 17.6052 7.9C18.2312 7.52512 18.702 6.92956 18.9292 6.22501C18.3374 6.57894 17.691 6.82728 17.0176 6.95938C16.7342 6.65548 16.3931 6.41372 16.0154 6.2488C15.6377 6.08388 15.2311 5.99923 14.8204 6.00001C13.1575 6.00001 11.8119 7.35625 11.8119 9.02813C11.8107 9.26068 11.8368 9.49254 11.8895 9.71876C10.6971 9.66159 9.52957 9.3505 8.46149 8.8054C7.39341 8.26029 6.44834 7.49318 5.68675 6.55313C5.41957 7.01379 5.27827 7.5394 5.27761 8.07501C5.27761 9.125 5.81325 10.0531 6.62206 10.5969C6.14286 10.5852 5.67349 10.4555 5.25378 10.2188V10.2563C5.25378 11.725 6.29267 12.9469 7.66767 13.225C7.4091 13.2955 7.14265 13.3312 6.87506 13.3313C6.68518 13.3316 6.49573 13.3128 6.30947 13.275C6.69173 14.4781 7.80425 15.3531 9.12211 15.3781C8.05125 16.2221 6.73652 16.6784 5.38456 16.675C5.14458 16.6747 4.90483 16.66 4.6665 16.6312C6.04186 17.5294 7.64061 18.0045 9.27244 18C14.814 18 17.8415 13.3843 17.8415 9.38125C17.8415 9.25001 17.838 9.11875 17.8319 8.99063C18.4196 8.56315 18.9279 8.03192 19.3332 7.42188Z" fill="white"/>
</svg>
